<svg height="487pt" viewBox="0 0 487 487.95208" width="487pt" xmlns="http://www.w3.org/2000/svg"><path d="m244.453125 0c-98.679687 0-187.644531 59.441406-225.40625 150.609375s-16.886719 196.105469 52.886719 265.882813c95.28125 95.277343 249.757812 95.28125 345.035156 0 95.277344-95.277344 95.277344-249.753907 0-345.03125-45.652344-45.90625-107.773438-71.636719-172.515625-71.460938zm227.976563 243.976562c-.003907 92.207032-55.546876 175.332032-140.734376 210.617188s-183.242187 15.78125-248.441406-49.417969c-58.144531-57.476562-81.058594-141.695312-60.050781-220.707031 21.011719-79.015625 82.726563-140.730469 161.738281-161.738281 79.015625-21.011719 163.230469 1.902343 220.710938 60.046875 42.894531 42.65625 66.941406 100.703125 66.777344 161.199218zm0 0"/><path d="m398.496094 107.507812c-2.242188-.101562-4.421875.746094-6.007813 2.335938l-282.171875 282.167969c-1.585937 1.585937-2.433594 3.765625-2.335937 6.007812.097656 2.238281 1.132812 4.335938 2.851562 5.777344 82.757813 69.191406 204.648438 63.761719 280.925781-12.515625 76.277344-76.277344 81.707032-198.164062 12.515626-280.925781-1.441407-1.71875-3.539063-2.75-5.777344-2.847657zm-92.367188 159.753907c0 3.378906 2.125 6.390625 5.304688 7.527343 3.179687 1.136719 6.734375.15625 8.875-2.453124l16.671875-20.300782c3.839843-4.816406 9.503906-7.824218 15.644531-8.300781 5.992188-.386719 11.875 1.730469 16.246094 5.847656.101562.09375.199218.183594.308594.269531l1.25 1.039063-56.59375 108.566406c-8.566407 16.460938-24.722657 26.519531-42.160157 26.519531h-66.824219c-16.820312 0-32.492187-9.476562-41.230468-24.808593l142.472656-142.390625zm74.3125 112.703125c-68.054687 68.035156-175.914062 75.320312-252.5 17.046875l24.058594-24.222657c11.914062 18.125 31.660156 29.1875 52.851562 29.1875h66.820313c23.425781 0 45.019531-13.359374 56.351563-35.132812l59.578124-114.375c1.742188-3.328125.910157-7.421875-1.988281-9.808594l-6.078125-5.023437c-7.582031-7.015625-17.726562-10.585938-28.035156-9.871094-10.53125.769531-20.269531 5.878906-26.882812 14.109375l-2.503907 3.054688-.03125-42.058594 75.410157-75.40625c58.269531 76.582031 50.988281 184.445312-17.050782 252.5zm0 0"/><path d="m380.921875 89.933594c-.097656-2.238282-1.132813-4.335938-2.847656-5.777344-82.761719-69.1875-204.648438-63.757812-280.921875 12.519531-76.277344 76.277344-81.710938 198.164063-12.519532 280.921875 1.441407 1.71875 3.535157 2.753906 5.777344 2.851563.117188 0 .234375.007812.351563.007812 2.121093 0 4.15625-.84375 5.65625-2.34375l282.167969-282.171875c1.585937-1.585937 2.433593-3.765625 2.335937-6.007812zm-224.480469 73.882812c.019532-7.71875 5.660156-13.839844 12.578125-13.839844h.457031c6.933594 0 12.976563 5.980469 12.976563 13.722657v71.277343h16v-121.222656c0-7.742187 5.542969-14.039062 12.523437-14.039062 6.933594 0 12.476563 6.296875 12.476563 14.039062v114.898438l-66.921875 66.902344c-.035156-46.617188-.164062-99.726563-.089844-131.738282zm108.441406-36.828125c-.003906.273438-.007812-.011719-.007812.988281h.007812c0 10-.003906 19.917969-.007812 28.601563 0 14.023437.09375 25.042969.09375 30.535156l-25.515625 25.535157v-116.960938c0-7.742188 5.441406-13.710938 12.375-13.710938h.484375c6.933594 0 12.574219 6.214844 12.574219 13.953126 0 10.414062 0 20.917968-.003907 31.058593zm15.988282 44.042969c0-4.347656 0-9.265625 0-14.617188 0-8.847656.007812-18.859374.007812-29.351562.273438-7.476562 5.800782-13.464844 12.574219-13.464844 6.925781 0 12.566406 6.292969 12.574219 14.027344l.011718 18.234375zm41.160156-41.164062v-2.253907c-.011719-16.550781-13.046875-30.015625-28.800781-30.015625-4.4375.023438-8.8125 1.070313-12.777344 3.058594v-4.980469c0-16.558593-12.386719-29.699219-28.140625-29.699219h-.484375c-13.023437 0-24.039063 9.039063-27.46875 21.582032-4.09375-2.4375-8.765625-3.734375-13.53125-3.765625-15.757813 0-28.375 13.394531-28.375 29.960937v22.972656c-4.058594-1.894531-8.5-2.835937-12.976563-2.75h-.457031c-15.71875 0-28.535156 13.28125-28.570312 29.800782-.085938 35.589844 0 97.15625 0 146.957031v.71875l-49.035157 49.03125c-44.273437-58.164063-51.75-136.394531-19.292968-201.890625 32.457031-65.496094 99.234375-106.933594 172.332031-106.933594 42.125-.226562 83.121094 13.59375 116.511719 39.277344zm0 0"/></svg>